PathFileType	4	(X/Y/Z)	 s01c0302.trc
DataRate	CameraRate	NumFrames	NumMarkers	Units	OrigDataRate	OrigDataStartFrame	OrigNumFrames
200	200	6	48	mm	200	1501	2000
Frame#	Time	racr			lacr			c7			jug			rlel			rdr			llel			ldr			s2			lic			ric			lasi			rasi			rpsi			lpsi			rgt			lgt			rth1			rth2			rth3			rth4			rlfc			rsh1			rsh2			rsh3			rsh4			rlmal			rmmal			rcal			rtoe			rmt5			lth1			lth2			lth4			lth3			llfc			lsh1			lsh2			lsh3			lsh4			llmal			lmmal			lcal			ltoe			lmt5			SBIKE			LBIKE			RBIKE			
		X1	Y1	Z1	X2	Y2	Z2	X3	Y3	Z3	X4	Y4	Z4	X5	Y5	Z5	X6	Y6	Z6	X7	Y7	Z7	X8	Y8	Z8	X9	Y9	Z9	X10	Y10	Z10	X11	Y11	Z11	X12	Y12	Z12	X13	Y13	Z13	X14	Y14	Z14	X15	Y15	Z15	X16	Y16	Z16	X17	Y17	Z17	X18	Y18	Z18	X19	Y19	Z19	X20	Y20	Z20	X21	Y21	Z21	X22	Y22	Z22	X23	Y23	Z23	X24	Y24	Z24	X25	Y25	Z25	X26	Y26	Z26	X27	Y27	Z27	X28	Y28	Z28	X29	Y29	Z29	X30	Y30	Z30	X31	Y31	Z31	X32	Y32	Z32	X33	Y33	Z33	X34	Y34	Z34	X35	Y35	Z35	X36	Y36	Z36	X37	Y37	Z37	X38	Y38	Z38	X39	Y39	Z39	X40	Y40	Z40	X41	Y41	Z41	X42	Y42	Z42	X43	Y43	Z43	X44	Y44	Z44	X45	Y45	Z45	X46	Y46	Z46	X47	Y47	Z47	X48	Y48	Z48	
1501	7.5050	730.925469	1360.126763	-103.131667	721.859767	1347.381538	-437.703971	692.440559	1432.353367	-261.392742	683.718351	1271.379180	-268.926450	657.369754	1087.855259	9.134061	738.919122	854.751482	-60.241349	649.449506	1078.629415	-544.288009	733.722790	863.109500	-434.846364	NaN	NaN	NaN	322.362512	1211.113321	-411.442892	341.129101	1165.620376	-100.312296	322.452801	1154.317216	-393.243654	354.629776	1116.259346	-127.724317	199.780978	1221.410794	-175.725917	185.980989	1236.124836	-280.716746	261.419145	1046.839270	-69.668209	264.248535	1092.352687	-450.928687	298.297733	927.579972	-49.938780	323.259972	849.431741	-59.778975	344.557610	762.826934	-70.947018	375.415069	864.514241	-76.943058	350.903778	647.692885	-96.188840	290.500395	545.492946	-64.501242	260.311378	466.523350	-70.408895	221.074492	387.219168	-80.856489	305.182470	448.904901	-106.749592	158.036380	287.455899	-105.457734	198.043688	282.844723	-178.614703	113.388696	292.327292	-157.871990	321.599571	119.241646	-133.086634	217.086050	156.697555	-68.152935	352.543815	1010.427681	-468.095543	437.777797	987.119081	-480.021689	454.790622	1037.628474	-467.686304	517.146972	954.105049	-476.161198	600.001963	872.132549	-467.561316	497.838314	832.918708	-482.110175	431.676613	779.216693	-465.128563	365.932421	729.257074	-442.704008	471.606875	737.845134	-443.419895	267.910216	648.202580	-413.316495	301.376709	639.113900	-335.775820	210.694726	653.909368	-366.764856	389.720815	442.927790	-370.874498	302.082928	502.695612	-439.237232	-224.191207	892.890058	-251.715776	-12.511565	84.827965	-455.995315	-21.590180	80.855059	-55.863805	
1502	7.5100	731.158499	1360.419647	-103.627893	721.050954	1347.905203	-438.174494	692.185363	1432.514620	-261.593720	683.615625	1271.485464	-269.071106	658.402138	1087.781676	8.949933	738.936760	854.574430	-60.263310	648.855519	1078.574466	-544.320720	733.581358	863.119838	-434.664990	NaN	NaN	NaN	322.567977	1212.499366	-409.992933	341.164863	1165.295134	-100.031840	322.547029	1155.838896	-392.526718	354.982207	1116.344521	-127.289075	199.496491	1221.280690	-174.982009	185.552932	1236.612069	-279.724446	261.609096	1046.554334	-69.536935	265.354443	1094.169617	-450.689567	298.953888	927.766754	-49.962376	323.798503	849.579589	-59.703162	344.939814	762.884067	-70.644254	375.761067	864.628237	-77.237373	350.184362	647.675655	-95.978267	288.082865	546.443295	-64.460000	256.454463	468.039093	-70.438741	215.860060	389.479879	-81.088034	301.105418	449.652771	-106.727110	151.064877	290.886962	-105.750732	191.312474	285.983918	-178.651477	106.819922	296.500548	-158.246568	311.401216	119.277225	-133.161196	207.604415	158.950462	-68.334653	353.840556	1012.160123	-467.755810	439.153494	989.354446	-479.331135	455.894908	1039.934155	-467.161244	518.607620	956.702955	-475.453810	602.375034	876.189943	-466.619388	500.842777	835.398174	-481.373714	435.573802	780.336301	-464.891155	370.763234	729.049674	-442.711487	476.580802	739.277036	-442.994367	273.867556	645.191611	-413.388835	307.125402	637.337643	-335.902818	215.764531	649.883322	-367.065613	400.278739	443.933905	-371.212703	311.076079	501.059205	-439.512920	-224.232524	892.901796	-251.784731	-12.515948	84.829288	-456.006981	-21.583038	80.858562	-55.880525	
1503	7.5150	731.281241	1360.838873	-104.059515	720.229510	1348.439075	-438.649085	691.852111	1432.754838	-261.763231	683.367367	1271.557783	-269.201495	659.238821	1087.849499	8.858214	738.977612	854.416291	-60.332784	648.421796	1078.564241	-544.258767	733.404898	863.173958	-434.519281	NaN	NaN	NaN	322.668407	1214.244929	-408.649946	340.978286	1165.715872	-99.528384	322.585095	1157.482465	-391.952665	355.191792	1116.762219	-126.844091	199.163550	1221.267145	-174.369910	185.110121	1237.126387	-278.772951	261.858235	1046.509925	-69.454404	266.562186	1096.158078	-450.382752	300.093044	928.203252	-50.299181	324.951427	849.989054	-59.839831	346.184905	763.303060	-70.705598	376.740439	865.103526	-77.745994	350.277781	647.874786	-95.835658	286.233523	547.745534	-64.386861	253.107560	469.930762	-70.468610	211.101645	392.208890	-81.175993	297.304652	450.942175	-107.139186	144.583014	294.965037	-105.875758	184.855124	289.272768	-178.689018	100.557352	301.485090	-158.547768	301.262978	119.863420	-133.238870	198.329049	161.835941	-68.504478	355.012737	1013.999208	-467.473327	440.390883	991.410937	-478.625368	457.023895	1042.036295	-466.403670	519.865899	958.853771	-474.620598	604.479836	879.475002	-465.531071	503.553552	837.084324	-480.264054	439.143913	780.693829	-464.527817	375.218397	728.088347	-442.702558	480.857840	740.613537	-443.050081	279.220283	641.953491	-413.683983	312.537746	634.787714	-336.005875	220.710469	645.091923	-367.433822	410.632396	443.841700	-370.808493	319.889111	498.734128	-439.812073	-224.262788	892.898814	-251.888927	-12.520229	84.834421	-456.022680	-21.582872	80.868496	-55.882263	
1504	7.5200	731.318229	1361.218614	-104.514762	719.410303	1349.011028	-439.014101	691.452630	1433.073848	-261.902433	682.999368	1271.673820	-269.301421	659.907330	1088.016896	8.754732	738.998024	854.269782	-60.392401	648.104796	1078.593621	-544.100636	733.467652	863.325612	-434.542558	NaN	NaN	NaN	322.747686	1216.298395	-407.343663	340.825340	1166.630406	-99.043158	322.567556	1159.016677	-391.530415	355.372885	1117.489710	-126.350157	198.827124	1221.355298	-173.931570	184.693647	1237.663387	-277.970071	262.199683	1046.830601	-69.412065	267.673872	1098.242648	-450.003513	301.517897	928.763784	-50.902182	326.672161	850.682203	-60.214342	348.232402	763.982883	-71.069330	378.243708	865.782977	-78.615146	351.221875	648.468319	-95.850742	284.897831	549.414769	-64.389837	250.228152	472.309031	-70.555433	206.716466	395.330205	-81.331726	294.103043	452.394783	-107.109162	137.875108	299.486805	-106.523152	178.871539	292.591313	-178.811660	94.717936	307.060111	-158.891587	291.244053	121.076187	-133.338511	189.289206	165.330714	-68.659344	356.136773	1015.774307	-467.107857	441.487321	993.168616	-477.877713	458.074625	1043.825648	-465.471291	520.881698	960.498940	-473.663731	605.936137	882.010499	-464.518034	505.871153	838.085373	-478.909978	442.403618	780.262410	-464.043636	379.438787	726.370405	-442.592396	484.804144	740.821189	-442.719396	284.494890	637.681187	-414.004237	317.741072	631.494921	-336.066745	225.568408	639.569528	-367.829433	420.874132	443.425425	-370.658647	328.511587	495.782422	-440.105566	-224.298477	892.910546	-251.989252	-12.523532	84.833754	-456.039663	-21.601847	80.899844	-55.915171	
1505	7.5250	731.286502	1361.658228	-104.948705	718.583126	1349.589109	-439.356254	690.999468	1433.490377	-261.997570	682.495155	1271.776372	-269.380087	660.476639	1088.311758	8.597920	738.997745	853.792508	-60.756706	647.865694	1078.672176	-543.910024	733.384427	863.448723	-434.499524	NaN	NaN	NaN	322.729997	1218.505079	-406.074814	340.661208	1167.918618	-98.476345	322.556923	1160.544629	-391.191833	355.450467	1118.459836	-125.773390	198.404408	1221.536172	-173.579470	184.372380	1238.218172	-277.392126	262.611831	1047.371959	-69.325228	268.649355	1100.389459	-449.575121	303.232855	929.561424	-51.679121	328.842376	851.511155	-60.783299	350.904339	764.943239	-71.608745	380.166265	867.008080	-79.609044	352.971611	649.189416	-96.058396	284.061758	551.426614	-64.384076	247.908103	475.027774	-70.582141	202.798635	398.970874	-81.434358	291.349618	454.223165	-107.137260	132.012588	304.604574	-106.520763	173.085337	296.589052	-178.823985	89.328605	313.175028	-159.492499	281.410562	122.856123	-133.441085	180.477699	169.412228	-68.851311	357.004409	1017.290607	-466.668329	442.322411	994.605246	-477.133486	459.020590	1045.263782	-464.502032	521.617620	961.582331	-472.586853	606.853578	883.782493	-463.476286	507.845546	838.293177	-477.460432	445.310433	779.040400	-463.439565	383.350197	723.880208	-442.402147	488.280328	740.285895	-442.331855	289.716584	632.880121	-414.135034	322.783680	627.455259	-336.104694	230.363616	633.369901	-368.195767	430.738494	442.233469	-370.785970	336.947267	492.222646	-440.406210	-224.312231	892.923747	-252.074431	-12.527975	84.838119	-456.053756	-21.599559	80.911412	-55.919295	
1506	7.5300	731.196069	1362.084792	-105.291328	717.771958	1350.189532	-439.632810	690.494847	1434.023933	-262.036814	681.957265	1271.936628	-269.439076	660.927892	1088.699296	8.337485	739.043435	853.697303	-60.813021	647.656953	1078.824410	-543.707934	735.091617	864.155961	-436.063820	NaN	NaN	NaN	322.580376	1220.806099	-405.092231	340.415636	1169.320033	-97.893014	322.555637	1162.087035	-390.819798	355.438704	1119.549839	-125.236424	197.933113	1221.830751	-173.329157	184.052137	1238.779462	-276.887936	262.986630	1048.075782	-69.264312	269.548432	1102.590182	-449.103309	305.092291	930.411169	-52.593409	331.415494	852.473869	-61.489880	354.039892	766.074779	-72.355205	382.405525	868.320151	-80.903186	355.419511	650.327651	-96.400944	283.771779	553.809330	-64.433895	245.950723	478.164483	-70.614300	199.271727	403.071918	-81.404524	289.038518	456.452248	-107.104441	126.564838	310.411317	-106.474950	167.709301	301.140232	-178.857069	84.101017	319.898210	-159.274273	271.772058	125.144048	-133.552676	171.932419	174.046005	-69.034129	357.668908	1018.316826	-466.029370	442.853233	995.347821	-476.213003	459.811264	1046.034639	-463.605053	522.041204	962.058643	-471.395345	607.568056	884.813738	-462.208279	509.357455	837.647839	-475.882761	447.909382	777.014981	-462.707841	386.887361	720.605239	-442.171491	491.429160	738.995692	-441.679334	294.765961	627.336679	-414.249873	327.399103	622.708070	-335.917523	235.065200	626.445368	-368.430117	440.372062	440.479134	-370.648178	345.141472	488.011413	-440.447526	-224.324999	892.964387	-252.163065	-12.528453	84.848365	-456.061075	-21.589911	80.966441	-55.945960	
